# Wavefront OBJ file written 2026-06-15T05:24:42
o model2_edgeMesh

# points : 16
# lines  : 8

# <points count="16">
v 0.0974959 0.00607303 -0.0213933
v 0.0969297 0.0121226 -0.0213933
v 0.0988037 0.0123569 -0.00922684
v 0.0993808 0.00619044 -0.00922684
v 0.0997592 0.00621402 0.00307951
v 0.0991799 0.012404 0.00307951
v 0.0980527 0.012263 0.0153392
v 0.0986254 0.00614339 0.0153392
v 0.0969297 -0.0121226 -0.0213933
v 0.0974959 -0.00607303 -0.0213933
v 0.0993808 -0.00619044 -0.00922684
v 0.0988037 -0.0123569 -0.00922684
v 0.0991799 -0.012404 0.00307951
v 0.0997592 -0.00621402 0.00307951
v 0.0980527 -0.012263 0.0153392
v 0.0986254 -0.00614339 0.0153392
# </points>

# <edges count="8">
l 1 2
l 3 4
l 5 6
l 7 8
l 9 10
l 11 12
l 13 14
l 15 16
# </edges>
